<svg xmlns="http://www.w3.org/2000/svg" viewBox="0 0 400 400" width="400" height="400"><defs><style>.cls-1,.cls-2{fill:#fff;}.cls-2{stroke:#fff;stroke-linecap:round;stroke-linejoin:round;stroke-width:0;}</style></defs><title>Asset 3</title><g id="Layer_2" data-name="Layer 2"><g id="Layer_1-2" data-name="Layer 1"><path class="cls-1" d="M171.77,347a1.58,1.58,0,0,1,.45.34A1.58,1.58,0,0,0,171.77,347Z"/><path class="cls-1" d="M389.87,204.41c.17.08.33.17.47.25C390.2,204.58,390,204.49,389.87,204.41Z"/><path class="cls-1" d="M336,152.91l6,1.14,2-.07-2,.07Z"/><path class="cls-1" d="M294.56,3.3A30.83,30.83,0,0,1,290,0H198l-.28,12.45.45,35.6-4.15,2-6,.18-3.05.12-8.19,1.18-3.8.65-8,1.72-6,1.45-2,.72-4.2,1.31-3.06,1a15.68,15.68,0,0,0-1.92.47C109,73.65,80.8,100,63.11,137.53c-2.93,6.22-4.58,13-6.82,19.59L51,179l-.3,2.19L50.08,188h0c-.16,2.24-.18,4.5-.54,6.7A11.69,11.69,0,0,1,48,197.81c-10.13-.15-20.26-.23-30.38-.5-1.88-.05-3.74-.86-5.62-1.32l.89-14,.28-2,.71-6,.53-3.16.25-1.74C22,129,39.72,94.15,69.13,65.75c34-32.85,74.72-50.81,122.13-53.09,2.15-.1,4.31-.14,6.46-.21L198,0H111a17.56,17.56,0,0,1-3.22,2.63Q36.81,36.82,2.63,107.78A17.65,17.65,0,0,1,0,111V291c1.05,1,2.5,1.88,3.09,3.13a220.32,220.32,0,0,0,102.17,103A24.16,24.16,0,0,1,109,400H291a41.65,41.65,0,0,1,4-2.56Q363.14,364,396.94,296.16A29.76,29.76,0,0,1,400,292V111c-8.73-18.22-19.07-35.42-32.18-50.89A219.88,219.88,0,0,0,294.56,3.3Zm22.18,226.82c-13.9,48.4-45.75,77.9-94.92,88.46-6.39,1.37-13.17.91-19.77,1.3l.48-34.42c-.12-8-.21-15.94-.39-23.91-.06-2.61,1.23-3.42,3.64-3.58,24.58-1.66,47-21,51.82-47.7.46-2.55.2-6.24,1.73-7.32,2-1.37,5.4-.75,8.2-.73,6,0,11.94.26,17.91.41l28.39-.4c2,0,4-.09,6-.14C321.32,211.7,319.34,221.07,316.74,230.12Zm-114.6-80c0-2.52,1.32-3,3.57-2.78,22.93,1.76,43.81,20.9,47.22,43.5.26,1.71-.23,3.53-.38,5.29l-3.68,1.17-22.76,0-1.4-1.21c-2.93-10.52-9.49-17.28-20.25-19.87a3.61,3.61,0,0,1-2.2-2.59C202.08,165.79,202.17,158,202.14,150.13Zm.06,38.48c0-2.48.71-5,1.1-7.45,2.62.83,5.83,1,7.74,2.63a39.59,39.59,0,0,1,8,9.74c2,3.38,1.16,4.26-2.78,4.39-1.66.05-3.31,0-5,0C200.67,197.83,202.21,199.07,202.2,188.61Zm9.06,13.56c1.5,0,3,0,4.5,0,4.42.08,5.05.94,3.6,5A19.89,19.89,0,0,1,207,219.37c-3.84,1.43-4.74.77-4.85-3.22,0-1.66,0-3.33,0-5C202.26,200.93,200.95,202.28,211.26,202.17Zm-6,22.16c10.15-2.4,16.6-8.7,19-18.89.64-2.68,2.2-3.33,4.68-3.3,7,.09,14,.11,21,0,3.05,0,4,.89,3.64,4.13a53.33,53.33,0,0,1-47.31,47.29c-3.23.38-4.24-.58-4.13-3.64.14-3.65,0-7.32,0-11,0-3.49.12-7,0-10.48C202,226.05,202.84,224.91,205.26,224.33Zm124.75-73,3.3,1.5Zm-3.07-.24-2-.17ZM320,149.52l3.21,1.39Zm-3.72,20.06c1.94,9.31,2.47,18.91,3.61,28.39l-34.52-.45-24.38,0c-5.11.34-2.33-3.53-3-5.57l-.69-3-1.13-5.1-.78-1.91c-8.06-20.82-22.78-33.88-44.77-38.54-2.71-.58-5.34-1.54-8-2.32a1.77,1.77,0,0,1-.69-.37l.47-25.22L202,81.07c3.31,0,6.66-.43,9.93-.07,32.76,3.54,60,17.71,81,43.18C299,131.53,303.68,140,309,148,311.49,155.18,314.76,162.2,316.3,169.58ZM313,148.41l2.92.74ZM188.06,51l0,1ZM90.58,151c.84-1.39,1.75-2.74,2.5-4.18,14.39-27.9,36.11-47.7,65.52-58.79,12.64-4.77,25.68-7.92,39.39-7l-.37,34.53.57,22.44a1.07,1.07,0,0,0,0,.94l0,1.88a3.19,3.19,0,0,1-.69.35c-.84.61-1.63,1.65-2.54,1.76-24.42,3-40.36,16.6-49.35,39.05l-.78,1.91-1.13,5.1-.68,3-.21,4c-.75.64-1.51,1.84-2.26,1.84-8.29,0-16.59-.18-24.88-.31L81.09,198a51.17,51.17,0,0,1-.31-6.38c1-14.06,4.7-27.48,9.8-40.56Zm80.33,165.68A118.9,118.9,0,0,1,81.82,217.4c-.7-5-.45-10.21-.64-15.32,9.73,0,19.46.07,29.19.16,1.79,0,3.57.36,5.36.55l23.41-.54c2.33-.06,3.63.73,3.91,3.37,2.6,24.69,16.33,40.75,39,49.82l1.9.79,5.1,1.18,3,.63,4,.19c.64.76,1.83,1.52,1.83,2.27,0,8.3-.19,16.6-.32,24.9l.46,34.46C188.92,318.88,179.65,318.87,170.91,316.71Zm1.32,30.66a1.58,1.58,0,0,0-.45-.34A1.58,1.58,0,0,1,172.23,347.37Zm25.71-140.16a33.38,33.38,0,0,0,0,4,11,11,0,0,1,0,1.49c-.31,2.36-.66,4.71-1,7.07-2.44-.84-5-1.38-7.28-2.57-4.49-2.38-6.86-6.58-8.39-11.25-.75-2.29-.25-3.89,2.72-3.76a63.2,63.2,0,0,0,8.93,0C196.92,201.71,198.41,203.33,197.94,207.21Zm0-23.07c-.07,1.49,0,3,0,4.48-.13,10.57,1.4,9.2-9.29,9.81l-7.43-1.6c1-2.58,1.29-5.77,3-7.62a49.9,49.9,0,0,1,10.11-7.63C196.66,180.14,198.07,181.33,197.93,184.13Zm-.49-32.23v22.23l-2.34,2.16c-9.71,3.32-16.2,9.7-18.81,19.78l-1.39,1.21-22.77,0-3.23-.06c-.5-.67-1.48-1.39-1.43-2,2.36-26.69,25-46.53,47.52-47.41C198.56,147.54,197.12,150.25,197.44,151.91Zm-46.67,50.24c7.16.09,14.31.1,21.47,0,2.61,0,3.92.95,4.53,3.5,2.33,9.81,8.5,16,18.23,18.44,2.27.57,3,1.63,2.95,3.77-.08,3.66,0,7.32,0,11,0,3.83-.13,7.66.05,11.48.15,3-1.2,3.81-3.91,3.39-16.5-2.6-29.55-10.6-38.64-24.75a53.83,53.83,0,0,1-8-22.87C147.06,203.21,147.85,202.11,150.76,202.14Zm46.92,186.31A168.19,168.19,0,0,1,131,375.39C71,350.28,33,306,17.13,242.91c-2.5-9.94-3-20.38-4.45-30.59-.16-1.12-.44-2.22-.67-3.33l-.16-5,.73-1.69c11,0,21.92,0,32.88-.19,3.39-.07,4.35,1.25,4.25,4.39a64.51,64.51,0,0,0,.56,7.42l.1,2,1.15,8.19.68,3.81,1.71,8,.41,2,2.13,7.21.93,3,.95,3a29.39,29.39,0,0,0,.79,2.85,149.6,149.6,0,0,0,53.06,69.06c10.67,7.7,21.94,14.42,34.65,18.32l2.15.86.81.36,2-1.35,1,2.3,4.22,1.27,3,.91h0l5,1.28,2,.45-2-.45,2,.45,2,.49,4,.76a4.47,4.47,0,0,0-.56-1.15,4.47,4.47,0,0,1,.56,1.15l3.83.69L185,350.6l2,.1,9.88.47,1.19,1.8Zm192.65-183.8c-.14-.08-.3-.17-.47-.25C390,204.49,390.2,204.58,390.33,204.66Zm-1.19-.63c.13.08.29.17.46.25-.17-.08-.33-.17-.46-.25l-.11,4-.81,11h0l-.31,3-2.77,17-.75,4-1.1,4h0l-.71,3-2.31,7.72c-5.88,12.83-10.71,26.26-17.82,38.37-23.21,39.56-56.9,66.84-100.14,82.26-1.55.55-3,1.27-4.56,1.91L250,382.58l-3,.71-4,1.1,2.52,1.52L243,384.39l-4,.74-17,2.78h0l-2,.21L208,389c-5.82-.46-5.8-.46-5.83-6.58q-.08-14.73-.2-29.46l5-2,6.94-.3a21.93,21.93,0,0,0,3.45.06c53.1-7.3,92.52-34.4,117.74-81.76,7.32-13.74,12.41-28.31,14.16-43.91L350,220l.76-6L351,207l2-5,35.41.34Zm-.71-11.7c.48,5.34.27,5.38-5.3,5.39-8.82,0-17.64-.16-26.46.09-3.76.1-5.69-.82-5.31-4.9a17.13,17.13,0,0,0-.52-3.89l-.11-2-.26-3-1-7.19-.3-1.76-.37-2-.39-2.07-.62-2.93-.51-2.07-2.38-9-.88-3-2,.07-6-1.14,6,1.14,2-.07c-.6-2.05-1.05-4.17-1.83-6.15-17.9-45.58-50-76.35-96.6-91.46-10.14-3.29-21.09-4.1-31.66-6.06L204,50l-1.9-1.19q0-17.9-.06-35.79l.95-1.06,7,0c7.36,1,14.77,1.73,22.09,3C278,22.91,315.87,45,345.71,80.73c20.56,24.6,33.56,52.91,39.82,84.33C386.51,174.15,387.62,183.23,388.44,192.33Z"/><path class="cls-1" d="M3.58,45.75A255.56,255.56,0,0,1,45.71,3.56,30.15,30.15,0,0,0,49,0H35a29.57,29.57,0,0,1-2.54,3.33q-11.1,11-22.29,21.9C6.81,28.51,3.39,31.74,0,35V49A28.46,28.46,0,0,0,3.58,45.75ZM40.88,2.86l-3,2.08Zm-5,4L33,9ZM9,33,6.86,35.93Z"/><path class="cls-1" d="M3.05,354.13C2.32,353.2,1,352.7,0,352v16c1.47.8,3.22,1.32,4.38,2.45q10.63,10.38,21,21c2.66,2.72,5.07,5.68,7.6,8.53H48a7.37,7.37,0,0,0-1.32-2.16A249.67,249.67,0,0,1,3.05,354.13Z"/><path class="cls-1" d="M355.1,397.23A13.67,13.67,0,0,0,353,400h10a18.71,18.71,0,0,1,2.24-3.62q15.5-15.65,31.15-31.14A18.76,18.76,0,0,1,400,363V353a12.39,12.39,0,0,0-2.76,2A249.15,249.15,0,0,1,355.1,397.23Z"/><path class="cls-1" d="M398.67,37.41Q382,20.53,365.42,3.58A23.56,23.56,0,0,1,363,0H353c.67,1.24,1,2.89,2.06,3.66C368.83,13.9,380.73,26.06,391.9,39c2.64,3.05,5.4,6,8.1,9V38A4.14,4.14,0,0,1,398.67,37.41Z"/><path class="cls-2" d="M188,52l0-1"/><path class="cls-2" d="M13.9,174l.53-3.16"/><path class="cls-2" d="M6.86,35.93,9,33"/><path class="cls-2" d="M33,9l2.93-2.14"/><path class="cls-2" d="M40.88,2.86l-3,2.08"/><path class="cls-1" d="M152.81,343.61l-1-2.3-2,1.35Z"/><path class="cls-2" d="M165,347.07l2,.45"/><path class="cls-2" d="M50.75,181.2,51,179"/><path class="cls-2" d="M347.28,166l-2.38-9"/><path class="cls-2" d="M348.42,171l-.62-2.93"/><path class="cls-2" d="M348.8,173.07l.37,2"/><path class="cls-2" d="M336,152.91l6,1.14"/><path class="cls-2" d="M320,149.52l3.21,1.39"/><path class="cls-2" d="M315.93,149.15l-2.92-.74"/><path class="cls-2" d="M330,151.37l3.3,1.5"/><path class="cls-2" d="M325,151l2,.17"/></g></g></svg>