<svg xmlns="http://www.w3.org/2000/svg" viewBox="0 0 400.13 400.13" width="400.13" height="400.13"><defs><style>.cls-1{fill:#1e1e1e;}.cls-2{fill:#5e5e5e;}.cls-3{fill:#1c1c1c;}.cls-4{fill:#5d5d5d;}.cls-5{fill:#140101;}.cls-6{fill:#f9f9f9;}.cls-7{fill:#fafafa;}.cls-8{fill:#ebebeb;}.cls-9{fill:#424242;}.cls-10{fill:#f8f8f8;}.cls-11{fill:#959595;}.cls-12{fill:#f9f8f8;}.cls-13{fill:#faf9f9;}.cls-14{fill:#d00404;}.cls-15{fill:#c00;}.cls-16{fill:#dd4b4b;}</style></defs><title>Asset 1</title><g id="Layer_2" data-name="Layer 2"><g id="Layer_1-2" data-name="Layer 1"><path class="cls-1" d="M199,401H110a24.16,24.16,0,0,0-3.73-2.82,220.32,220.32,0,0,1-102.17-103c-.6-1.25-2-2.1-3.09-3.13q0-44.5,0-89l12.59.34L12.86,205c-.59.48-1.68.94-1.7,1.45-.16,3.79-.13,7.58-.12,11.37,0,.35.34.69.52,1a9.16,9.16,0,0,0,.41-1.35c.37-2.52.7-5,1-7.56.23,1.11.51,2.21.67,3.33,1.45,10.21,1.95,20.65,4.45,30.59C34,307,72,351.28,132,376.39a168.19,168.19,0,0,0,66.67,13.07Z" transform="translate(-0.93 -0.93)"/><path class="cls-2" d="M1,173V112a17.65,17.65,0,0,0,2.63-3.22q34.2-71,105.15-105.15A17.56,17.56,0,0,0,112,1h87l-.28,12.45c-2.15.07-4.31.11-6.46.21C144.85,15.95,104.14,33.9,70.13,66.75,40.72,95.15,23,130,15.69,170.09ZM189.1,12.17l6.76-.58c-2.14-.19-4.28-.51-6.43-.54s-4.19.22-6.29.34Z" transform="translate(-0.93 -0.93)"/><path class="cls-3" d="M292,401H203a32.52,32.52,0,0,0,0-4.41c-.5-3.75,1.11-4.92,4.73-4.65s7.52.06,11.29.06l2-2.87,2-.21c5.19,0,10.39.06,15.57-.15.52,0,1-1.71,1.46-2.63l4-.74,2.52,1.52,1.48-2.62,3-.71,1,3.1a25.2,25.2,0,0,1,2.24-1.89c.53-.36,1.34-.82,1.83-.66,3.13,1.06,2.71-1.06,2.69-2.86,1.52-.64,3-1.36,4.56-1.91,43.24-15.42,76.93-42.7,100.14-82.26,7.1-12.11,11.94-25.54,17.82-38.37a11.88,11.88,0,0,0,2.5-1.87c.59-.73.66-1.86,1.14-2.71a18.55,18.55,0,0,1,1.74-2.25l-3.08-.89.71-3,2.62-1.48L385.39,244l.75-4c2.64.24,3-1.38,2.87-3.46-.06-1.42.17-2.84.15-4.26,0-3.1-.16-6.21-.24-9.31l.31-3H391c.25-4.66.53-9.31.67-14,0-.31-1-.66-1.52-1l-.72-1.69L401,203v90a29.76,29.76,0,0,0-3.06,4.16Q364,365,296,398.44A41.65,41.65,0,0,0,292,401Z" transform="translate(-0.93 -0.93)"/><path class="cls-4" d="M401,112v57l-14.47-2.94c-6.26-31.42-19.25-59.73-39.82-84.33C316.87,46,279,23.91,233.09,16c-7.32-1.26-14.72-2-22.09-3a5.49,5.49,0,0,1,1.64-.93c1.74-.28,3.51-.4,5.27-.58-1.88-.15-3.75-.43-5.63-.44C203,11,203,11,203,1h88a30.83,30.83,0,0,0,4.56,3.3,219.88,219.88,0,0,1,73.26,56.81C381.93,76.58,392.27,93.78,401,112Z" transform="translate(-0.93 -0.93)"/><path class="cls-5" d="M401,203l-11.57.34L354,203c-3.3-.32-3.79.91-2,5l-.3,6.94c-3.39-2.06-1.45-5.34-1.59-8-.16-3-1-4-4.06-4-8.41.17-16.83.09-25.25.11-2,0-4,.11-6,.14l-28.39.4c-6-.15-11.94-.36-17.91-.41-2.8,0-6.24-.64-8.2.73-1.53,1.07-1.27,4.77-1.73,7.32-4.81,26.69-27.24,46-51.82,47.7-2.4.16-3.7,1-3.64,3.58.18,8,.27,15.94.39,23.91l-.48,34.42c0,8.07.18,16.16-.11,24.22-.15,4,1.13,5.15,5,5.05,2.28-.06,5.36-1.85,7,1.57L208,352c-4.08-1.79-5.28-1.32-5,2q.1,14.73.2,29.46c0,6.12,0,6.12,5.83,6.58l5,1,5,1c-3.76,0-7.54.21-11.29-.06s-5.23.9-4.73,4.65a32.52,32.52,0,0,1,0,4.41h-4l-.32-11.54.44-35.48.26-2-1.46.18L188,351.7c1.52-.57,3-1.58,4.56-1.63,6.86-.19,6.37.55,6.38-6.56,0-7.55,0-15.09,0-22.64l-.46-34.46c.14-8.3.32-16.6.32-24.9,0-.76-1.19-1.52-1.83-2.27l-4-.19-3-.63-5.1-1.18-1.9-.79c-22.62-9.08-36.35-25.13-39-49.82-.28-2.64-1.58-3.42-3.91-3.37l-23.41.54c-1.79-.19-3.57-.53-5.36-.55-9.73-.1-19.46-.12-29.19-.16-8.09,0-16.19.16-24.26-.15-4-.15-5.16,1.12-5.06,5,.06,2.28,1.87,5.37-1.58,7a64.5,64.5,0,0,1-.56-7.42c.1-3.14-.86-4.45-4.25-4.39-11,.22-21.92.15-32.88.19L1,203v-4l11.29-.19a14.91,14.91,0,0,0,3.73,1q15,.13,29.92,0a10.57,10.57,0,0,0,3.08-1,11.69,11.69,0,0,0,1.52-3.08c.36-2.2.38-4.47.54-6.7,3.42,1.06,1.77,3.9,1.81,5.89.06,2.9.78,4.43,4,4.1a49.2,49.2,0,0,1,5,0H82.09l34.52-.45c8.29.13,16.59.32,24.88.31.75,0,1.51-1.2,2.26-1.84l.21-4,.68-3,1.13-5.1.78-1.91c9-22.45,24.93-36.08,49.35-39.05.9-.11,1.69-1.15,2.54-1.76a3.19,3.19,0,0,0,.69-.35l3.83-.07a1.77,1.77,0,0,0,.69.37c2.67.78,5.3,1.74,8,2.32,22,4.67,36.71,17.72,44.77,38.54l.78,1.91,1.13,5.1.69,3c.64,2-2.14,5.91,3,5.57l24.38,0,34.52.45a16.17,16.17,0,0,1,3.35-.63c7.09.16,14.18.29,21.26.69,3.45.19,4.68-1,4.59-4.47-.05-2.16,1-4.35,1.61-6.52l.11,2c-2.55,8.22-1.34,10,6.66,10H381c10.05,0,10,0,10-10a59.12,59.12,0,0,1,.6-5.94c.12,2,.34,3.93.35,5.9,0,8.88,0,8.88,9,8.95Zm-225.1-4.71,1.39-1.21c2.61-10.07,9.1-16.46,18.81-19.78l2.34-2.16V152.91c-.32-1.66,1.13-4.37-2.44-4.08-22.52.88-45.16,20.72-47.52,47.41-.06.63.93,1.34,1.43,2l3.23.06Zm74,0,3.68-1.17c.14-1.77.64-3.59.38-5.29-3.41-22.61-24.28-41.74-47.22-43.5-2.25-.17-3.58.27-3.57,2.78,0,7.83-.06,15.66.12,23.49a3.61,3.61,0,0,0,2.2,2.59c10.77,2.59,17.33,9.35,20.25,19.87l1.4,1.21Zm-46.72,41.63c0,3.66.1,7.32,0,11-.11,3.06.89,4,4.13,3.64a53.33,53.33,0,0,0,47.31-47.29c.38-3.24-.59-4.18-3.64-4.13-7,.11-14,.09-21,0-2.48,0-4,.62-4.68,3.3-2.42,10.2-8.87,16.49-19,18.89-2.42.57-3.26,1.72-3.15,4.13C203.27,233,203.15,236.45,203.15,239.94Zm-4.23-.1c0-3.66-.06-7.32,0-11,0-2.15-.68-3.2-2.95-3.77-9.72-2.46-15.9-8.64-18.23-18.44-.61-2.56-1.92-3.54-4.53-3.5-7.15.11-14.31.1-21.47,0-2.91,0-3.71,1.06-3.35,4a53.83,53.83,0,0,0,8,22.87c9.09,14.15,22.13,22.15,38.64,24.75,2.71.43,4.06-.35,3.91-3.39C198.78,247.5,198.92,243.67,198.91,239.84Zm4.24-27.68c0,1.67,0,3.33,0,5,.1,4,1,4.66,4.85,3.22a19.89,19.89,0,0,0,12.35-12.25c1.46-4,.82-4.88-3.6-5-1.5,0-3,0-4.5,0C201.95,203.28,203.26,201.93,203.15,212.16Zm-4.24,0a33.38,33.38,0,0,1,0-4c.47-3.88-1-5.49-5-5.1a63.21,63.21,0,0,1-8.93,0c-3-.13-3.47,1.47-2.72,3.76,1.53,4.67,3.9,8.87,8.39,11.25,2.25,1.19,4.84,1.74,7.28,2.57.33-2.36.68-4.71,1-7.07A11,11,0,0,0,198.92,212.18Zm13.41-13.25c1.66,0,3.32,0,5,0,3.94-.13,4.78-1,2.78-4.39a39.59,39.59,0,0,0-8-9.74c-1.92-1.65-5.12-1.81-7.74-2.63-.39,2.48-1.1,5-1.1,7.45C203.21,200.07,201.67,198.83,212.32,198.93Zm-22.69.5c10.69-.61,9.16.76,9.29-9.81,0-1.49-.06-3,0-4.48.14-2.8-1.27-4-3.59-2.55a49.9,49.9,0,0,0-10.11,7.63c-1.75,1.84-2.07,5-3,7.62Z" transform="translate(-0.93 -0.93)"/><path class="cls-6" d="M112,1a17.56,17.56,0,0,1-3.22,2.63Q37.81,37.82,3.63,108.78A17.65,17.65,0,0,1,1,112V50a28.46,28.46,0,0,0,3.58-3.25A255.55,255.55,0,0,1,46.71,4.56,30.16,30.16,0,0,0,50,1Z" transform="translate(-0.93 -0.93)"/><path class="cls-7" d="M401,112c-8.73-18.22-19.07-35.42-32.18-50.89A219.88,219.88,0,0,0,295.56,4.3,30.83,30.83,0,0,1,291,1h63c.67,1.24,1,2.89,2.06,3.66C369.83,14.9,381.73,27.06,392.9,40c2.64,3.05,5.4,6,8.1,9Z" transform="translate(-0.93 -0.93)"/><path class="cls-6" d="M1,292c1.05,1,2.5,1.88,3.09,3.13a220.32,220.32,0,0,0,102.17,103A24.16,24.16,0,0,1,110,401H49a7.37,7.37,0,0,0-1.32-2.16A249.66,249.66,0,0,1,4.05,355.13C3.32,354.2,2,353.7,1,353Q1,322.5,1,292Z" transform="translate(-0.93 -0.93)"/><path class="cls-6" d="M292,401a41.65,41.65,0,0,1,4-2.56Q364.14,365,397.94,297.16A29.76,29.76,0,0,1,401,293v61a12.39,12.39,0,0,0-2.76,2,249.15,249.15,0,0,1-42.14,42.23A13.67,13.67,0,0,0,354,401Z" transform="translate(-0.93 -0.93)"/><path class="cls-8" d="M364,1c11.5,0,23,.07,34.5-.06,2.15,0,2.59.41,2.57,2.57C400.93,15.33,401,27.17,401,39a4.14,4.14,0,0,1-1.33-.59Q383,21.53,366.42,4.58A23.56,23.56,0,0,1,364,1Z" transform="translate(-0.93 -0.93)"/><path class="cls-8" d="M1,36C1,25.17,1.08,14.33.93,3.5.91,1.35,1.35.91,3.5.93,14.33,1.08,25.17,1,36,1a29.57,29.57,0,0,1-2.54,3.33q-11.1,11-22.29,21.9C7.81,29.51,4.39,32.74,1,36Z" transform="translate(-0.93 -0.93)"/><path class="cls-9" d="M203,141.77l-3.83.07,0-1.88c.12-.09.35-.21.33-.26a4.38,4.38,0,0,0-.32-.68l-.57-22.44L199,82.05q0-9.65,0-19.31c0-9.8,0-9.8-10-9.75l0-1a1.36,1.36,0,0,0,0-.74l6-.18a32.57,32.57,0,0,0,3.91.27,15.58,15.58,0,0,0,.24-2.28l-.45-35.6L199,1h4c0,10,0,10,9.27,10,1.88,0,3.75.29,5.63.44-1.76.18-3.52.3-5.27.58A5.49,5.49,0,0,0,211,13l-7,0-1.5-.44L203,14l.06,35.79c.06,1.32,0,2.89,1.9,1.19l9.93.32c-2.37.56-4.75,1.61-7.1,1.55-3.6-.09-5,.84-4.91,4.73.29,8.15.11,16.31.12,24.47l.39,34.48Z" transform="translate(-0.93 -0.93)"/><path class="cls-10" d="M34,401c-10.17,0-20.33-.08-30.5.07-2.15,0-2.6-.41-2.57-2.57.15-9.83.07-19.67.07-29.5,1.47.8,3.22,1.32,4.38,2.45q10.63,10.38,21,21C29.06,395.18,31.47,398.15,34,401Z" transform="translate(-0.93 -0.93)"/><path class="cls-7" d="M401,369c0,9.83-.08,19.67.07,29.5,0,2.15-.41,2.6-2.57,2.57-9.83-.15-19.67-.07-29.5-.07a55.81,55.81,0,0,1,4.4-5.8q10.78-11,21.8-21.8A55.81,55.81,0,0,1,401,369Z" transform="translate(-0.93 -0.93)"/><path class="cls-1" d="M401,199c-9-.06-9-.06-9-8.95,0-2-.23-3.93-.35-5.9a59.12,59.12,0,0,0-.6,5.94c0,10,0,10-10,10H358.5c-8,0-9.22-1.83-6.66-10a17.13,17.13,0,0,1,.52,3.89c-.38,4.09,1.55,5,5.31,4.9,8.81-.24,17.64-.07,26.46-.09,5.57,0,5.78-.05,5.3-5.39-.82-9.11-1.92-18.19-2.91-27.28L401,169Z" transform="translate(-0.93 -0.93)"/><path class="cls-11" d="M34,401c-2.53-2.85-4.94-5.82-7.6-8.53q-10.4-10.62-21-21C4.22,370.32,2.47,369.8,1,369q0-5,0-10a20.25,20.25,0,0,1,3.91,2.63c5.87,6.33,11.33,13.07,17.49,19.1,7.23,7.07,15,13.54,22.59,20.27Z" transform="translate(-0.93 -0.93)"/><path class="cls-3" d="M12.29,198.81,1,199V173l14.69-2.91-.25,1.74L14.9,175l-.71,6L12.93,182c-.55.32-1.57.65-1.57.94.15,4.69.43,9.38.69,14.07Z" transform="translate(-0.93 -0.93)"/><path class="cls-11" d="M1,36c3.39-3.26,6.81-6.49,10.17-9.77Q22.34,15.31,33.46,4.33A29.57,29.57,0,0,0,36,1h6l-.14,2.88,0,0-3,2.08-2,1.91L34,10,10,34,7.86,36.93,1,43Z" transform="translate(-0.93 -0.93)"/><path class="cls-9" d="M36.93,7.86l2-1.91,3-2.08,0,0L44,1h6a30.16,30.16,0,0,1-3.29,3.56A255.55,255.55,0,0,0,4.58,46.75,28.46,28.46,0,0,1,1,50V43l6.86-6.07L10,34,34,10Z" transform="translate(-0.93 -0.93)"/><path class="cls-9" d="M45,401c-7.56-6.73-15.36-13.21-22.59-20.27-6.16-6-11.62-12.77-17.49-19.1A20.25,20.25,0,0,0,1,359q0-3,0-6c1,.7,2.32,1.2,3.05,2.13a249.66,249.66,0,0,0,43.63,43.71A7.37,7.37,0,0,1,49,401Z" transform="translate(-0.93 -0.93)"/><path class="cls-9" d="M401,49c-2.7-3-5.47-5.94-8.1-9-11.17-12.94-23.07-25.1-36.83-35.35C355,3.89,354.67,2.24,354,1h5c.87,1.32,1.47,3,2.64,3.9A264.1,264.1,0,0,1,401,45Z" transform="translate(-0.93 -0.93)"/><path class="cls-9" d="M354,401a13.67,13.67,0,0,1,2.1-2.77A249.15,249.15,0,0,0,398.24,356a12.39,12.39,0,0,1,2.76-2v4c-10.39,10.85-20.7,21.77-31.22,32.5-3.67,3.75-7.84,7-11.78,10.5Z" transform="translate(-0.93 -0.93)"/><path class="cls-11" d="M401,45A264.1,264.1,0,0,0,361.64,4.9C360.47,4,359.87,2.32,359,1h5a23.56,23.56,0,0,0,2.42,3.58q16.57,17,33.25,33.83A4.14,4.14,0,0,0,401,39Z" transform="translate(-0.93 -0.93)"/><path class="cls-8" d="M401,369a55.81,55.81,0,0,0-5.8,4.4q-11,10.78-21.8,21.8A55.81,55.81,0,0,0,369,401h-5a18.71,18.71,0,0,1,2.24-3.62q15.5-15.65,31.15-31.14A18.76,18.76,0,0,1,401,364Z" transform="translate(-0.93 -0.93)"/><path class="cls-11" d="M401,364a18.76,18.76,0,0,0-3.61,2.24q-15.65,15.49-31.15,31.14A18.71,18.71,0,0,0,364,401h-6c3.94-3.49,8.11-6.75,11.78-10.5C380.3,379.77,390.61,368.85,401,358Z" transform="translate(-0.93 -0.93)"/><path class="cls-2" d="M44,1,41.86,3.88,42,1Z" transform="translate(-0.93 -0.93)"/><path class="cls-10" d="M13.59,203.34c11,0,21.92,0,32.88-.19,3.39-.07,4.35,1.25,4.25,4.39a64.5,64.5,0,0,0,.56,7.42l.1,2,1.15,8.19.68,3.81,1.71,8,.41,2,2.13,7.21.93,3,.95,3a29.4,29.4,0,0,0,.79,2.86,149.61,149.61,0,0,0,53.06,69.06c10.67,7.7,21.94,14.42,34.65,18.32l2.15.86.81.36,3,.95,4.22,1.27,3,.91,5,1.28,2,.45,2,.49,4,.76,3.83.69L186,351.6l2,.1,9.88.47,1.19,1.8-.44,35.48A168.19,168.19,0,0,1,132,376.39C72,351.28,34,307,18.13,243.91c-2.5-9.94-3-20.38-4.45-30.59-.16-1.12-.44-2.22-.67-3.33l-.16-5Z" transform="translate(-0.93 -0.93)"/><path class="cls-5" d="M12.86,205l.16,5c-.34,2.52-.68,5-1,7.56a9.16,9.16,0,0,1-.41,1.35c-.18-.35-.52-.69-.52-1,0-3.79,0-7.59.12-11.37C11.18,206,12.27,205.51,12.86,205Z" transform="translate(-0.93 -0.93)"/><path class="cls-7" d="M15.43,171.83l.25-1.74C23,130,40.72,95.15,70.13,66.75c34-32.85,74.72-50.81,122.13-53.09,2.15-.1,4.31-.14,6.46-.21l.45,35.6-4.15,2-6,.18-3.05.12-8.19,1.18-3.8.65-8,1.72-6,1.45-2,.72-4.2,1.31-3.06,1a15.68,15.68,0,0,0-1.92.47C110,74.65,81.8,101,64.11,138.53c-2.93,6.22-4.58,13-6.82,19.59L52,180l-.3,2.19L51.08,189c-.16,2.24-.18,4.5-.54,6.7A11.69,11.69,0,0,1,49,198.81c-10.13-.15-20.26-.23-30.38-.5-1.88-.05-3.74-.86-5.62-1.32l.89-14,.28-2,.71-6Z" transform="translate(-0.93 -0.93)"/><path class="cls-9" d="M189.1,12.17l-6-.78c2.1-.13,4.19-.38,6.29-.34s4.29.35,6.43.54Z" transform="translate(-0.93 -0.93)"/><path class="cls-10" d="M351.72,215,352,208l2-5,35.41.34.72,1.69-.11,4-.81,11-.31,3-2.77,17-.75,4-1.1,4-.71,3-2.31,7.72c-5.88,12.83-10.71,26.26-17.82,38.37-23.21,39.56-56.9,66.84-100.14,82.26-1.55.55-3,1.27-4.56,1.91L251,383.58l-3,.71-4,1.1-4,.74-17,2.78-2,.21L209,390c-5.82-.46-5.8-.46-5.83-6.58q-.08-14.73-.2-29.46l5-2,6.94-.3a21.93,21.93,0,0,0,3.45.06c53.1-7.3,92.52-34.4,117.74-81.76,7.32-13.74,12.41-28.31,14.16-43.91L351,221Z" transform="translate(-0.93 -0.93)"/><path class="cls-1" d="M386.14,240l2.77-17c.09,3.1.2,6.2.24,9.31,0,1.42-.21,2.85-.15,4.26C389.1,238.62,388.78,240.24,386.14,240Z" transform="translate(-0.93 -0.93)"/><path class="cls-1" d="M223,388.92l17-2.78c-.49.92-.94,2.61-1.46,2.63C233.36,389,228.16,388.91,223,388.92Z" transform="translate(-0.93 -0.93)"/><path class="cls-1" d="M209,390l12-.91L219,392l-5-1Z" transform="translate(-0.93 -0.93)"/><path class="cls-1" d="M251,383.58l7.72-2.31c0,1.8.44,3.92-2.69,2.86-.49-.17-1.3.3-1.83.66a25.2,25.2,0,0,0-2.24,1.89Z" transform="translate(-0.93 -0.93)"/><path class="cls-1" d="M389.23,220l.81-11,1,11Z" transform="translate(-0.93 -0.93)"/><path class="cls-1" d="M381.27,258.74l2.31-7.72,3.08.89a18.55,18.55,0,0,0-1.74,2.25c-.48.85-.56,2-1.14,2.71A11.88,11.88,0,0,1,381.27,258.74Z" transform="translate(-0.93 -0.93)"/><path class="cls-5" d="M391,220l-1-11,.11-4c.53.33,1.53.68,1.52,1C391.53,210.68,391.25,215.34,391,220Z" transform="translate(-0.93 -0.93)"/><path class="cls-1" d="M244,385.39l4-1.1-1.48,2.62Z" transform="translate(-0.93 -0.93)"/><path class="cls-1" d="M384.29,248l1.1-4,1.52,2.52Z" transform="translate(-0.93 -0.93)"/><path class="cls-6" d="M386.53,166.06c1,9.09,2.09,18.17,2.91,27.28.48,5.34.27,5.38-5.3,5.39-8.82,0-17.64-.16-26.46.09-3.76.1-5.69-.82-5.31-4.9a17.13,17.13,0,0,0-.52-3.89l-.11-2-.26-3-1-7.19-.3-1.76-.37-2-.39-2.07-.62-2.93-.51-2.07-2.38-9-.88-3c-.6-2.05-1.05-4.17-1.83-6.15-17.9-45.58-50-76.35-96.6-91.46-10.14-3.29-21.09-4.1-31.66-6.06L205,51l-1.9-1.19L203,14l.95-1.06,7,0c7.36,1,14.77,1.73,22.09,3C279,23.91,316.87,46,346.71,81.73,367.27,106.33,380.27,134.64,386.53,166.06Z" transform="translate(-0.93 -0.93)"/><path class="cls-1" d="M350.3,226.1c-1.74,15.6-6.84,30.17-14.16,43.91-25.23,47.36-64.64,74.46-117.74,81.76a21.93,21.93,0,0,1-3.45-.06c-1.63-3.43-4.71-1.63-7-1.57-3.89.1-5.17-1.1-5-5.05.3-8.06.11-16.14.11-24.22,6.6-.39,13.38.08,19.77-1.3,49.17-10.56,81-40.06,94.92-88.46,2.6-9,4.58-18.41,3.07-28,8.42,0,16.84.06,25.25-.11,3-.06,3.9,1,4.06,4,.14,2.66-1.79,5.94,1.59,8l-.76,6-2.73-1.87C348.46,221.58,346.26,224.76,350.3,226.1Zm-2.12,4.74-.81-1.78a7.72,7.72,0,0,0-.34,1.78,14.54,14.54,0,0,0,.42,2.24Z" transform="translate(-0.93 -0.93)"/><path class="cls-3" d="M147.84,342.44c-12.72-3.9-24-10.62-34.65-18.32a149.61,149.61,0,0,1-53.06-69.06,29.4,29.4,0,0,1-.79-2.86l1.36-2.06-2.31-1-.93-3c3.74-3.72-.95-4.95-2.13-7.21l-.41-2a30.79,30.79,0,0,0,.9-6c0-.7-1.69-1.35-2.61-2l-.68-3.81c2.62-3.15,2.17-5.87-1.15-8.19l-.1-2c3.45-1.63,1.64-4.72,1.58-7-.1-3.9,1.1-5.18,5.06-5,8.08.31,16.17.13,24.26.15.19,5.11-.06,10.28.64,15.32a118.9,118.9,0,0,0,89.09,99.31c8.74,2.16,18,2.17,27,3.17,0,7.55,0,15.09,0,22.64,0,7.11.48,6.37-6.37,6.56-1.53,0-3,1.06-4.56,1.63l-2-.1c-2.44-2.39-5-4.05-8.17-1.14l-3.83-.69c-.89-2.59-2.36-2.14-4-.76l-2-.49-2-.45-5-1.28-1.29-2.63L158,345.88l-4.22-1.27-1-2.3-2,1.35-.81-.36-.87-1.85Z" transform="translate(-0.93 -0.93)"/><path class="cls-12" d="M320.81,203.08c1.51,9.62-.47,19-3.07,28-13.9,48.4-45.75,77.9-94.92,88.46-6.39,1.37-13.17.91-19.77,1.3l.48-34.42a85,85,0,0,0,82.91-82.83l28.39-.4C316.83,203.19,318.82,203.13,320.81,203.08Z" transform="translate(-0.93 -0.93)"/><path class="cls-12" d="M199,320.88c-9-1-18.3-1-27-3.17A118.9,118.9,0,0,1,82.82,218.4c-.7-5-.45-10.21-.64-15.32,9.73,0,19.46.07,29.19.16,1.79,0,3.57.36,5.36.55a76.94,76.94,0,0,0,11.57,40.76c16,25.77,39,40.22,69.69,41.6l.17.27h.32Z" transform="translate(-0.93 -0.93)"/><path class="cls-13" d="M203.43,116.55,203,82.07c3.31,0,6.66-.43,9.93-.07,32.76,3.54,60,17.71,81,43.18C300,132.53,304.68,141,310,149c2.5,7.18,5.76,14.2,7.3,21.58,1.94,9.31,2.47,18.91,3.61,28.39l-34.52-.45-.46-1.51c-.52-4.76-.57-9.63-1.64-14.26-3.53-15.36-10.25-29.08-22-40a41,41,0,0,0-3.21-3.7A83.75,83.75,0,0,0,203.43,116.55Z" transform="translate(-0.93 -0.93)"/><path class="cls-13" d="M199,82.05l-.37,34.53a81.16,81.16,0,0,0-32.29,7.57c-10.57,5-20.31,11.19-27.5,20.73-14.43,14.77-21.22,32.69-22,53.12l-.29.18,0,.34L82.09,199a51.18,51.18,0,0,1-.31-6.38c1-14.06,4.7-27.48,9.8-40.56.84-1.39,1.75-2.74,2.5-4.18,14.39-27.9,36.11-47.7,65.52-58.79C172.23,84.29,185.27,81.14,199,82.05Z" transform="translate(-0.93 -0.93)"/><path class="cls-14" d="M286.45,203.62a85,85,0,0,1-82.91,82.83c-.12-8-.21-15.94-.39-23.91-.06-2.61,1.23-3.42,3.64-3.58,24.58-1.66,47-21,51.82-47.7.46-2.55.2-6.24,1.73-7.32,2-1.37,5.4-.75,8.2-.73C274.51,203.26,280.48,203.47,286.45,203.62Z" transform="translate(-0.93 -0.93)"/><path class="cls-14" d="M198,286.14c-30.68-1.38-53.69-15.83-69.69-41.6a76.94,76.94,0,0,1-11.57-40.76l23.41-.54c2.33-.06,3.63.73,3.91,3.37,2.6,24.69,16.33,40.75,39,49.82l1.9.79,5.1,1.18,3,.63,4,.19c0,5.42-.11,10.83.05,16.24C197.15,279,197.67,282.59,198,286.14Z" transform="translate(-0.93 -0.93)"/><path class="cls-14" d="M262.3,142.77c11.74,10.89,18.47,24.61,22,40,1.06,4.64,1.12,9.5,1.64,14.26-6.58,0-13.17-.09-19.75.07-1.4,0-2.78,1-4.17,1.48-5.11.34-2.33-3.53-3-5.57l-.69-3-1.13-5.1-.78-1.91c-8.06-20.82-22.78-33.88-44.77-38.54-2.71-.58-5.34-1.54-8-2.32,11.78,0,23.57-.18,35.35-.08C246.78,142.11,254.54,142.52,262.3,142.77Z" transform="translate(-0.93 -0.93)"/><path class="cls-14" d="M116.87,198c.73-20.43,7.52-38.35,22-53.12,7.78-.38,15.56-.78,23.35-1.13q18.13-.81,36.27-1.56c-.84.61-1.63,1.65-2.54,1.76-24.42,3-40.36,16.6-49.35,39.05l-.78,1.91-1.13,5.1-.68,3-.21,4c-5.41,0-10.83-.11-16.23.05C124,197.15,120.42,197.66,116.87,198Z" transform="translate(-0.93 -0.93)"/><path class="cls-15" d="M203.15,239.94c0-3.49.12-7,0-10.48-.11-2.41.73-3.56,3.15-4.13,10.15-2.4,16.6-8.7,19-18.89.64-2.68,2.2-3.33,4.68-3.3,7,.09,14,.11,21,0,3.05,0,4,.89,3.64,4.13a53.33,53.33,0,0,1-47.31,47.29c-3.23.38-4.24-.58-4.13-3.64C203.25,247.26,203.15,243.6,203.15,239.94Z" transform="translate(-0.93 -0.93)"/><path class="cls-15" d="M198.92,239.84c0,3.83-.14,7.66,0,11.48.15,3-1.2,3.81-3.91,3.39-16.5-2.6-29.55-10.6-38.64-24.75a53.83,53.83,0,0,1-8-22.87c-.36-2.89.44-4,3.35-4,7.16.09,14.31.1,21.47,0,2.61,0,3.92.95,4.53,3.5,2.33,9.81,8.5,16,18.23,18.44,2.27.57,3,1.63,2.95,3.77C198.86,232.51,198.91,236.18,198.92,239.84Z" transform="translate(-0.93 -0.93)"/><path class="cls-15" d="M225.71,197.08c-2.93-10.52-9.49-17.28-20.25-19.87a3.61,3.61,0,0,1-2.2-2.59c-.18-7.83-.1-15.66-.12-23.49,0-2.52,1.32-3,3.57-2.78,22.93,1.76,43.81,20.9,47.22,43.5.26,1.71-.23,3.53-.38,5.29l-3.68,1.17-22.76,0Z" transform="translate(-0.93 -0.93)"/><path class="cls-15" d="M198.44,152.91q0,11.11,0,22.23l-2.34,2.16c-9.71,3.32-16.2,9.7-18.81,19.78l-1.39,1.21-22.77,0-3.23-.06c-.5-.67-1.48-1.39-1.43-2,2.36-26.69,25-46.53,47.52-47.41Z" transform="translate(-0.93 -0.93)"/><path class="cls-3" d="M320.91,199c-1.14-9.48-1.67-19.08-3.61-28.39-1.54-7.38-4.8-14.4-7.3-21.58l4,.41,2.92.74,4.09.36,3.21,1.39L326,152l2,.17,3.07.24,3.3,1.5,2.64,0,6,1.14,2-.07.88,3,2.38,9,.51,2.07.62,2.93.39,2.07.37,2,.3,1.76c-1.73,2.68-1,5,1,7.19l.26,3c-.57,2.18-1.66,4.36-1.61,6.52.09,3.52-1.14,4.66-4.59,4.47-7.08-.4-14.17-.54-21.26-.69A16.17,16.17,0,0,0,320.91,199Z" transform="translate(-0.93 -0.93)"/><path class="cls-3" d="M91.58,152c-5.09,13.08-8.78,26.51-9.8,40.56a51.18,51.18,0,0,0,.31,6.38H61.84a49.2,49.2,0,0,0-5,0c-3.18.33-3.9-1.2-4-4.1,0-2,1.61-4.84-1.81-5.89l.66-6.82L52,180l5.25-21.88Z" transform="translate(-0.93 -0.93)"/><path class="cls-16" d="M198.44,142.19q-18.14.78-36.27,1.56c-7.78.35-15.56.75-23.35,1.13,7.18-9.53,16.92-15.73,27.5-20.73a81.16,81.16,0,0,1,32.29-7.57l.57,22.44a1.07,1.07,0,0,0,0,.94l0,1.88A3.19,3.19,0,0,1,198.44,142.19Z" transform="translate(-0.93 -0.93)"/><path class="cls-16" d="M262.3,142.77c-7.76-.25-15.53-.66-23.29-.72-11.78-.1-23.57,0-35.35.08a1.77,1.77,0,0,1-.69-.37l.47-25.22a83.75,83.75,0,0,1,55.66,22.53A41,41,0,0,1,262.3,142.77Z" transform="translate(-0.93 -0.93)"/><path class="cls-15" d="M203.15,212.16c.11-10.23-1.2-8.87,9.11-9,1.5,0,3,0,4.5,0,4.42.08,5.05.94,3.6,5A19.89,19.89,0,0,1,208,220.37c-3.84,1.43-4.74.77-4.85-3.22C203.12,215.49,203.15,213.82,203.15,212.16Z" transform="translate(-0.93 -0.93)"/><path class="cls-15" d="M198.92,212.18a11.24,11.24,0,0,1,0,1.49c-.31,2.36-.66,4.71-1,7.07-2.44-.84-5-1.38-7.28-2.57-4.49-2.38-6.86-6.58-8.39-11.25-.75-2.29-.25-3.89,2.72-3.76a63.21,63.21,0,0,0,8.93,0c4-.4,5.5,1.22,5,5.1A33.13,33.13,0,0,0,198.92,212.18Z" transform="translate(-0.93 -0.93)"/><path class="cls-15" d="M212.32,198.93c-10.65-.1-9.11,1.14-9.12-9.32,0-2.48.71-5,1.1-7.45,2.62.83,5.83,1,7.74,2.63a39.59,39.59,0,0,1,8,9.74c2,3.38,1.16,4.26-2.78,4.39C215.64,199,214,198.93,212.32,198.93Z" transform="translate(-0.93 -0.93)"/><path class="cls-15" d="M189.63,199.43l-7.43-1.6c1-2.58,1.29-5.77,3-7.62a49.9,49.9,0,0,1,10.11-7.63c2.32-1.44,3.73-.25,3.59,2.55-.07,1.49,0,3,0,4.48C198.79,200.18,200.32,198.82,189.63,199.43Z" transform="translate(-0.93 -0.93)"/><path class="cls-2" d="M13,197c1.87.46,3.73,1.27,5.62,1.32,10.13.27,20.26.35,30.38.5a10.57,10.57,0,0,1-3.08,1q-15,.12-29.92,0a14.91,14.91,0,0,1-3.73-1L12.05,197l.48-.15Z" transform="translate(-0.93 -0.93)"/><path class="cls-15" d="M116.87,198c3.55-.33,7.09-.84,10.65-1,5.41-.16,10.82,0,16.23-.05-.75.64-1.51,1.84-2.26,1.84-8.29,0-16.59-.18-24.88-.31l0-.34Z" transform="translate(-0.93 -0.93)"/><path class="cls-15" d="M198,286.14c-.33-3.55-.84-7.1-1-10.66-.17-5.41-.05-10.83-.05-16.24.64.76,1.83,1.52,1.83,2.27,0,8.3-.19,16.6-.32,24.9h-.32Z" transform="translate(-0.93 -0.93)"/><path class="cls-15" d="M262,198.56c1.39-.52,2.77-1.45,4.17-1.48,6.58-.16,13.17-.07,19.75-.07l.46,1.51Z" transform="translate(-0.93 -0.93)"/><path class="cls-1" d="M208,352l-5,2C202.74,350.7,203.93,350.22,208,352Z" transform="translate(-0.93 -0.93)"/><path class="cls-1" d="M354,203l-2,5C350.22,203.92,350.71,202.69,354,203Z" transform="translate(-0.93 -0.93)"/><path class="cls-14" d="M198.44,152.91,196,148.83C199.56,148.54,198.12,151.25,198.44,152.91Z" transform="translate(-0.93 -0.93)"/><path class="cls-15" d="M193,259l-3-.63Z" transform="translate(-0.93 -0.93)"/><path class="cls-15" d="M258.35,190l.69,3Z" transform="translate(-0.93 -0.93)"/><path class="cls-15" d="M144,193l.68-3Z" transform="translate(-0.93 -0.93)"/><path class="cls-1" d="M199.12,354l-1.19-1.8,1.46-.18Z" transform="translate(-0.93 -0.93)"/><path class="cls-15" d="M184.9,257.24l-1.9-.79Z" transform="translate(-0.93 -0.93)"/><path class="cls-14" d="M196.1,177.3l2.34-2.16Z" transform="translate(-0.93 -0.93)"/><path class="cls-15" d="M256.44,183l.78,1.91Z" transform="translate(-0.93 -0.93)"/><path class="cls-15" d="M145.78,184.91l.78-1.91Z" transform="translate(-0.93 -0.93)"/><path class="cls-14" d="M149.9,198.26l3.23.06Z" transform="translate(-0.93 -0.93)"/><path class="cls-14" d="M249.87,198.32l3.68-1.17Z" transform="translate(-0.93 -0.93)"/><path class="cls-14" d="M175.9,198.29l1.39-1.21Z" transform="translate(-0.93 -0.93)"/><path class="cls-14" d="M225.71,197.08l1.4,1.21Z" transform="translate(-0.93 -0.93)"/><path class="cls-4" d="M91.58,152l-34.29,6.1c2.24-6.55,3.89-13.37,6.82-19.59C81.8,101,110,74.65,148.84,59.84a15.68,15.68,0,0,1,1.92-.47l2.09,1.35,1-2.31,4.2-1.31.86,1.52L160,56.37l6-1.45a30.83,30.83,0,0,0,6,.9c.7,0,1.34-1.7,2-2.63l3.8-.65c3.18,2.69,5.73,1,8.19-1.18l3.05-.12a1.36,1.36,0,0,1,0,.74l0,1c10-.06,10-.06,10,9.75q0,9.65,0,19.31c-13.71-.92-26.75,2.23-39.39,7-29.4,11.09-51.12,30.89-65.52,58.79C93.33,149.28,92.41,150.63,91.58,152Z" transform="translate(-0.93 -0.93)"/><path class="cls-4" d="M337,153.91l-2.64,0-3.3-1.5-3.07-.24-2-.17-1.75-.05L321,150.52l-4.09-.36-2.92-.74-4-.41c-5.31-8-10-16.47-16.06-23.83C273,99.7,245.72,85.54,213,82c-3.27-.35-6.62,0-9.93.07,0-8.16.17-16.32-.12-24.47-.14-3.9,1.31-4.82,4.91-4.73,2.35.06,4.74-1,7.1-1.55,10.58,2,21.52,2.77,31.66,6.06,46.56,15.11,78.7,45.88,96.6,91.46.78,2,1.23,4.1,1.83,6.15l-2,.07Z" transform="translate(-0.93 -0.93)"/><path class="cls-2" d="M195,51.06l4.15-2a15.58,15.58,0,0,1-.24,2.28A32.57,32.57,0,0,1,195,51.06Z" transform="translate(-0.93 -0.93)"/><path class="cls-4" d="M203.1,49.8,205,51C203.06,52.69,203.16,51.12,203.1,49.8Z" transform="translate(-0.93 -0.93)"/><path class="cls-4" d="M204,12.95,203,14l-.55-1.5Z" transform="translate(-0.93 -0.93)"/><path class="cls-4" d="M199.16,140a1.07,1.07,0,0,1,0-.94,4.38,4.38,0,0,1,.32.68S199.28,139.88,199.16,140Z" transform="translate(-0.93 -0.93)"/><path class="cls-2" d="M189,53l0-1Z" transform="translate(-0.93 -0.93)"/><path class="cls-5" d="M13,197l-.49-.1-.48.15c-.25-4.69-.54-9.38-.69-14.07,0-.3,1-.63,1.57-.94l1,1Z" transform="translate(-0.93 -0.93)"/><path class="cls-2" d="M15.43,171.83,14.9,175Z" transform="translate(-0.93 -0.93)"/><path class="cls-2" d="M13.91,183l-1-1L14.19,181Z" transform="translate(-0.93 -0.93)"/><path class="cls-2" d="M10,34,7.86,36.93Z" transform="translate(-0.93 -0.93)"/><path class="cls-2" d="M36.93,7.86,34,10Z" transform="translate(-0.93 -0.93)"/><path class="cls-2" d="M41.88,3.86l-3,2.08Z" transform="translate(-0.93 -0.93)"/><path class="cls-1" d="M53.21,229c.92.67,2.59,1.32,2.61,2a30.79,30.79,0,0,1-.9,6Z" transform="translate(-0.93 -0.93)"/><path class="cls-1" d="M51.38,217c3.31,2.32,3.77,5,1.15,8.19Z" transform="translate(-0.93 -0.93)"/><path class="cls-1" d="M55.33,239c1.18,2.26,5.87,3.5,2.13,7.21Z" transform="translate(-0.93 -0.93)"/><path class="cls-1" d="M177.83,350.47c3.18-2.91,5.73-1.25,8.17,1.14Z" transform="translate(-0.93 -0.93)"/><path class="cls-1" d="M158,345.88l1.69-1.72,1.29,2.63Z" transform="translate(-0.93 -0.93)"/><path class="cls-1" d="M170,349c1.65-1.38,3.11-1.83,4,.76Z" transform="translate(-0.93 -0.93)"/><path class="cls-1" d="M150.8,343.66l2-1.35,1,2.3Z" transform="translate(-0.93 -0.93)"/><path class="cls-1" d="M58.39,249.19l2.31,1-1.36,2.06Z" transform="translate(-0.93 -0.93)"/><path class="cls-1" d="M147.84,342.44l1.28-1,.87,1.85Z" transform="translate(-0.93 -0.93)"/><path class="cls-1" d="M166,348.07l2,.45Z" transform="translate(-0.93 -0.93)"/><path class="cls-2" d="M174,53.2c-.67.92-1.32,2.61-2,2.63a30.83,30.83,0,0,1-6-.9Z" transform="translate(-0.93 -0.93)"/><path class="cls-2" d="M186,51.36c-2.47,2.23-5,3.87-8.19,1.18Z" transform="translate(-0.93 -0.93)"/><path class="cls-2" d="M153.82,58.4l-1,2.31-2.09-1.35Z" transform="translate(-0.93 -0.93)"/><path class="cls-2" d="M160,56.37l-1.12,2.24L158,57.09Z" transform="translate(-0.93 -0.93)"/><path class="cls-4" d="M52,180l-.3,2.19Z" transform="translate(-0.93 -0.93)"/><path class="cls-3" d="M350.3,226.1c-4-1.34-1.84-4.52-2.07-7L351,221Z" transform="translate(-0.93 -0.93)"/><path class="cls-1" d="M348.28,167l-2.38-9Z" transform="translate(-0.93 -0.93)"/><path class="cls-1" d="M351.47,185c-2-2.17-2.73-4.5-1-7.19Z" transform="translate(-0.93 -0.93)"/><path class="cls-1" d="M349.42,172l-.62-2.93Z" transform="translate(-0.93 -0.93)"/><path class="cls-1" d="M350.17,176.06l-.37-2Z" transform="translate(-0.93 -0.93)"/><path class="cls-3" d="M348.18,230.84l-.73,2.25a14.54,14.54,0,0,1-.42-2.24,7.72,7.72,0,0,1,.34-1.78Z" transform="translate(-0.93 -0.93)"/><path class="cls-1" d="M337,153.91l6,1.14Z" transform="translate(-0.93 -0.93)"/><path class="cls-1" d="M321,150.52l3.21,1.39Z" transform="translate(-0.93 -0.93)"/><path class="cls-1" d="M314,149.41l2.92.74Z" transform="translate(-0.93 -0.93)"/><path class="cls-1" d="M331,152.37l3.3,1.5Z" transform="translate(-0.93 -0.93)"/><path class="cls-1" d="M326,152l2,.17Z" transform="translate(-0.93 -0.93)"/></g></g></svg>
